HIERARCHY
ROOT joint_Root
{
	OFFSET 0.0 0.0 0.0
	CHANNELS 6 Xposition Yposition Zposition Zrotation Xrotation Yrotation 
	JOINT Hips
	{
		OFFSET -17.1583 93.1646 452.98
		CHANNELS 6 Xposition Yposition Zposition Zrotation Xrotation Yrotation 
		JOINT Spine
		{
			OFFSET 15.7357 0.0 0.0
			CHANNELS 6 Xposition Yposition Zposition Zrotation Xrotation Yrotation 
			JOINT Chest
			{
				OFFSET 8.98455 -0.406207 0.0
				CHANNELS 6 Xposition Yposition Zposition Zrotation Xrotation Yrotation 
				JOINT Neck
				{
					OFFSET 16.3773 0.0 0.0
					CHANNELS 6 Xposition Yposition Zposition Zrotation Xrotation Yrotation 
					JOINT Head
					{
						OFFSET 6.45672 0.0 0.0
						CHANNELS 6 Xposition Yposition Zposition Zrotation Xrotation Yrotation 
						End Site
						{
							OFFSET 0.0 0.0 0.0
						}
					}
				}
				JOINT Shoulder_L
				{
					OFFSET 12.9942 -0.242716 4.98039
					CHANNELS 6 Xposition Yposition Zposition Zrotation Xrotation Yrotation 
					JOINT UpperArm_L
					{
						OFFSET 5.34809 0.0 0.0
						CHANNELS 6 Xposition Yposition Zposition Zrotation Xrotation Yrotation 
						JOINT LowerArm_L
						{
							OFFSET 24.3286 1.87007e-05 0.0
							CHANNELS 6 Xposition Yposition Zposition Zrotation Xrotation Yrotation 
							JOINT Hand_L
							{
								OFFSET 22.2916 0.0 0.0
								CHANNELS 6 Xposition Yposition Zposition Zrotation Xrotation Yrotation 
								End Site
								{
									OFFSET 0.0 0.0 0.0
								}
							}
						}
					}
				}
				JOINT Shoulder_R
				{
					OFFSET 12.9945 -0.242716 -4.98039
					CHANNELS 6 Xposition Yposition Zposition Zrotation Xrotation Yrotation 
					JOINT UpperArm_R
					{
						OFFSET -5.34813 0.0 0.0
						CHANNELS 6 Xposition Yposition Zposition Zrotation Xrotation Yrotation 
						JOINT LowerArm_R
						{
							OFFSET -24.3289 0.000322201 0.0
							CHANNELS 6 Xposition Yposition Zposition Zrotation Xrotation Yrotation 
							JOINT Hand_R
							{
								OFFSET -22.2915 -0.000108084 0.0
								CHANNELS 6 Xposition Yposition Zposition Zrotation Xrotation Yrotation 
								End Site
								{
									OFFSET 0.0 0.0 0.0
								}
							}
						}
					}
				}
			}
		}
		JOINT UpperLeg_L
		{
			OFFSET -2.19248 -6.46944 0.0
			CHANNELS 6 Xposition Yposition Zposition Zrotation Xrotation Yrotation 
			JOINT LowerLeg_L
			{
				OFFSET 39.0811 0.0 -1.23785e-05
				CHANNELS 6 Xposition Yposition Zposition Zrotation Xrotation Yrotation 
				JOINT Foot_L
				{
					OFFSET 40.9854 0.0 -1.26872e-05
					CHANNELS 6 Xposition Yposition Zposition Zrotation Xrotation Yrotation 
					JOINT Toes_L
					{
						OFFSET 11.7543 0.0 0.0
						CHANNELS 6 Xposition Yposition Zposition Zrotation Xrotation Yrotation 
						End Site
						{
							OFFSET 0.0 0.0 0.0
						}
					}
				}
			}
		}
		JOINT UpperLeg_R
		{
			OFFSET -2.19251 6.46944 0.0
			CHANNELS 6 Xposition Yposition Zposition Zrotation Xrotation Yrotation 
			JOINT LowerLeg_R
			{
				OFFSET -39.0811 -0.00228153 -0.0401928
				CHANNELS 6 Xposition Yposition Zposition Zrotation Xrotation Yrotation 
				JOINT Foot_R
				{
					OFFSET -40.9854 0.0 0.0
					CHANNELS 6 Xposition Yposition Zposition Zrotation Xrotation Yrotation 
					JOINT Toes_R
					{
						OFFSET -11.7543 0.0 0.0
						CHANNELS 6 Xposition Yposition Zposition Zrotation Xrotation Yrotation 
						End Site
						{
							OFFSET 0.0 0.0 0.0
						}
					}
				}
			}
		}
	}
}
MOTION
Frames:	4
Frame Time:	0.0333333
0.000000 0.000000 0.000000 0.000000 0.000000 -0.000000 -0.763694 92.616100 -1.067030 87.234500 0.954607 5.734270 15.735700 0.000005 -0.000001 84.903300 85.706800 -83.574000 8.984550 -0.406207 -0.000000 0.797610 -0.843309 2.662360 16.377300 -0.000001 -0.000001 8.355940 2.018170 -2.712850 6.456720 -0.000001 -0.000000 -7.150180 1.455010 -2.029200 12.994200 -0.242716 4.980390 -93.289400 9.410970 -70.634000 5.348090 -0.000007 -0.000001 -73.053800 18.375000 0.580192 24.328600 0.000019 0.000005 13.572400 25.819400 -28.999300 22.291600 -0.000001 0.000005 -7.896210 5.070100 5.790540 12.994500 -0.242716 -4.980390 87.362000 7.269220 -69.991800 -5.348130 -0.000001 -0.000004 -69.713600 31.164500 -3.441400 -24.328900 0.000322 -0.000009 3.171160 8.103650 -21.462700 -22.291500 -0.000108 -0.000004 -7.536780 5.238050 1.747770 -2.192480 -6.469440 -0.000000 -178.204000 -0.741034 0.196778 39.081100 -0.000007 -0.000012 0.250478 -0.614656 22.171900 40.985400 -0.000006 -0.000013 2.633040 3.356780 -71.576300 11.754300 -0.000000 0.000003 -0.001128 0.184837 -9.078760 -2.192510 6.469440 -0.000001 -175.590000 8.408830 -175.069000 -39.081100 -0.002282 -0.040193 0.068990 -0.241252 15.225000 -40.985400 0.000008 0.000006 1.377670 3.250490 -70.156100 -11.754300 -0.000006 -0.000006 -0.011412 0.281571 -5.130900
0.000000 0.000000 0.000000 0.000000 0.000000 -0.000000 -0.779092 92.622300 -1.108240 87.227400 0.927254 5.661680 15.735700 0.000005 -0.000001 85.035500 85.700400 -83.688700 8.984550 -0.406207 -0.000000 0.812197 -0.825591 2.697470 16.377300 -0.000001 -0.000001 8.233270 2.090790 -2.636410 6.456720 -0.000001 -0.000000 -7.503810 1.488380 -1.753290 12.994200 -0.242716 4.980390 -93.320800 9.483000 -70.598700 5.348090 -0.000007 -0.000001 -72.845100 16.250400 0.585148 24.328600 0.000019 0.000005 14.354500 25.819400 -30.437300 22.291600 -0.000001 0.000005 -8.449920 5.060180 6.012610 12.994500 -0.242716 -4.980390 87.303400 7.396110 -69.903200 -5.348130 -0.000001 -0.000004 -69.123300 30.086700 -3.364510 -24.328900 0.000322 -0.000009 3.805980 8.930160 -23.203000 -22.291500 -0.000108 -0.000004 -8.672400 5.220500 2.201710 -2.192480 -6.469440 -0.000000 -178.190000 -0.740317 0.095252 39.081100 -0.000007 -0.000012 0.249730 -0.612857 22.170600 40.985400 -0.000006 -0.000013 2.614080 3.328030 -71.553200 11.754300 -0.000000 0.000003 -0.001073 0.184066 -9.110110 -2.192510 6.469440 -0.000001 -175.564000 8.402950 -175.164000 -39.081100 -0.002282 -0.040193 0.068611 -0.240001 15.216600 -40.985400 0.000008 0.000006 1.368670 3.277500 -70.147300 -11.754300 -0.000006 -0.000006 -0.011453 0.281859 -5.119100
0.000000 0.000000 0.000000 0.000000 0.000000 -0.000000 -0.806369 92.634000 -1.150610 87.195300 0.977679 5.620630 15.735700 0.000005 -0.000001 84.756600 85.659700 -83.397800 8.984550 -0.406207 -0.000000 0.890128 -0.874485 2.722370 16.377300 -0.000001 -0.000001 7.984870 2.215010 -2.459350 6.456720 -0.000001 -0.000000 -7.979710 1.661950 -1.285960 12.994200 -0.242716 4.980390 -93.352700 9.514230 -70.484900 5.348090 -0.000007 -0.000001 -72.520800 14.262600 0.714295 24.328600 0.000019 0.000005 15.681900 25.404600 -33.200600 22.291600 -0.000001 0.000005 -8.932410 5.023150 6.823690 12.994500 -0.242716 -4.980390 87.245500 7.521570 -69.819300 -5.348130 -0.000001 -0.000004 -68.467300 28.381800 -2.912580 -24.328900 0.000322 -0.000009 4.533280 9.151470 -26.501200 -22.291500 -0.000108 -0.000004 -9.485060 5.189220 2.988550 -2.192480 -6.469440 -0.000000 -178.120000 -0.757481 0.035976 39.081100 -0.000007 -0.000012 0.246692 -0.606079 22.148200 40.985400 -0.000006 -0.000013 2.599420 3.403800 -71.526400 11.754300 -0.000000 0.000003 -0.001158 0.185262 -9.061500 -2.192510 6.469440 -0.000001 -175.496000 8.324950 -175.211000 -39.081100 -0.002282 -0.040193 0.066167 -0.232388 15.130700 -40.985400 0.000008 0.000006 1.321240 3.191660 -70.035900 -11.754300 -0.000006 -0.000006 -0.011649 0.283239 -5.062580
0.000000 0.000000 0.000000 0.000000 0.000000 -0.000000 -0.828512 92.646500 -1.223250 87.170000 1.052210 5.430440 15.735700 0.000005 -0.000001 84.621200 85.668900 -83.244700 8.984550 -0.406207 -0.000000 0.870415 -0.894477 2.757630 16.377300 -0.000001 -0.000001 7.677600 2.346940 -2.239630 6.456720 -0.000001 -0.000000 -8.551410 1.849130 -0.633982 12.994200 -0.242716 4.980390 -93.361100 9.493840 -70.401300 5.348090 -0.000007 -0.000001 -72.054100 12.869800 0.959887 24.328600 0.000019 0.000005 18.334900 25.567600 -37.517800 22.291600 -0.000001 0.000005 -8.890620 5.018990 6.912900 12.994500 -0.242716 -4.980390 87.227000 7.488580 -69.612600 -5.348130 -0.000001 -0.000004 -67.594500 27.121200 -2.127350 -24.328900 0.000322 -0.000009 5.932350 9.651900 -31.788500 -22.291500 -0.000108 -0.000004 -9.586850 5.169480 3.473250 -2.192480 -6.469440 -0.000000 -178.099000 -0.689656 -0.235322 39.081100 -0.000007 -0.000012 0.250290 -0.614200 22.171700 40.985400 -0.000006 -0.000013 2.586890 3.410510 -71.531400 11.754300 -0.000000 0.000003 -0.001174 0.185472 -9.052960 -2.192510 6.469440 -0.000001 -175.417000 8.339510 -175.429000 -39.081100 -0.002282 -0.040193 0.064352 -0.226519 15.077000 -40.985400 0.000008 0.000006 1.193510 3.104510 -69.941900 -11.754300 -0.000006 -0.000006 -0.011442 0.281781 -5.122290
